<svg xmlns="http://www.w3.org/2000/svg" viewBox="48 18 438 534" role="img" aria-labelledby="title desc">
  <title id="title">tkh.dev favicon</title>
  <desc id="desc">A hand-drawn black cat face with a long tail.</desc>
  <path
    fill="none"
    stroke="#050505"
    stroke-linecap="round"
    stroke-linejoin="round"
    stroke-width="33"
    d="M257 510 246 424c-55-4-96-16-123-40-30-28-43-70-44-151-1-62 8-136 26-187 7-18 22-16 31 2l48 101c4 8 12 14 20 14 36 1 71-1 103-9 10-2 18-11 19-21l15-99c2-16 21-21 33-10 48 43 83 89 108 141 23 49 36 112 31 162-5 50-25 93-67 126l110 163"
  />
  <circle cx="222" cy="333" r="18" fill="#050505" />
  <circle cx="318" cy="312" r="18" fill="#050505" />
</svg>
