<svg xmlns="http://www.w3.org/2000/svg" viewBox="0 0 64 64" role="img" aria-labelledby="title desc">
  <title id="title">tkh.dev favicon</title>
  <desc id="desc">A hand-drawn cat face with a long tail inside an irregular rounded white shape.</desc>
  <path
    fill="#fffdf8"
    d="M13.2 9.9c5-3.7 13.4-4.8 21.1-4.4 8.3.4 16.3 2.1 20.1 7.2 4.4 5.8 4.3 14.1 3.7 22.1-.5 8.8-1.7 17.9-7.2 22.4-4.9 4.1-12.2 4.1-19.5 3.5-9-.6-18.8-1.9-23.3-7.9-4.1-5.5-4.6-14.9-3.7-22.6.7-6.9 2.7-15.2 8.8-20.3Z"
  />
  <path
    fill="none"
    stroke="#050505"
    stroke-linecap="round"
    stroke-linejoin="round"
    stroke-width="3.8"
    d="m29.5 57.2-1.3-9.7c-6.4-.6-10.8-2.2-13.6-4.7-3.1-2.9-4.4-7.3-4.5-15.8-.1-6 1-13.3 2.8-18.4.6-1.4 1.9-1.4 2.6 0l4.8 10c.3.7 1 1.1 1.7 1.1 3.7.1 7-.1 10.1-.8.9-.2 1.5-.9 1.6-1.8L35 7.5c.2-1.3 1.7-1.7 2.7-.8 4.6 4.1 8 8.7 10.5 13.9 2.3 4.9 3.6 11 3.1 16-.5 5.2-2.6 9.7-7.3 13l10.4 15.4"
  />
  <circle cx="26.6" cy="38.8" r="2.2" fill="#050505" />
  <circle cx="37.6" cy="36.5" r="2.2" fill="#050505" />
</svg>
